<?xml version="1.0" encoding="utf-8"?>
<!-- Generator: Adobe Illustrator 17.1.0, SVG Export Plug-In . SVG Version: 6.00 Build 0)  -->
<!DOCTYPE svg PUBLIC "-//W3C//DTD SVG 1.1//EN" "http://www.w3.org/Graphics/SVG/1.1/DTD/svg11.dtd">
<svg version="1.1" id="mopo_svg" xmlns="http://www.w3.org/2000/svg" xmlns:xlink="http://www.w3.org/1999/xlink" x="0px"
	 y="0px" viewBox="0 0 200 200" enable-background="new 0 0 200 200" xml:space="preserve">
<path id="mopo" fill-rule="evenodd" clip-rule="evenodd" d="M191.8,125.3c-2.1-7.4-11.6-14.7-11.6-14.7l1.1-1.9l-10.6-10.2
	c0,0-1,0.2-2.2,0.7s-5.2,2.4-12.8,2.5c-7.6,0.1-14.2-3.7-14.2-3.7l-5.8,2.8c0,0,0.2-1,0.6-4c0.4-3-0.2-3.5-0.6-5.7
	c-0.4-2.2-3.5-6.8-5.9-10.9c-2.4-4.1-9.4-13.4-12.8-17.7s-8.2-8.4-8.2-8.4s0.9-3.2,1.2-7.5s-3.5-8.3-5.1-9.7
	c-1.7-1.4-6.3-3.2-10-2.4L93.3,35c-2.3,0.6-3.8,1.7-5.3,3.5c-1.5,1.7-2.5,2.7-3.5,5.3s-1,5.3-1.2,5.5c-0.2,0.3,3,0,3,0
	s-0.1,2.1,0,2.8c0.1,0.7,0,1.9,1.4,4.1c1.3,2.2,2.3,2.5,3.8,2.7c1.4,0.2,3.1,0,3.1,0s0.6,3.1,0.4,3.6c-0.1,0.2-18.7,20-18.7,20
	s-2.2-0.7-3.9-1.1c-1.7-0.4-5.1-1.4-8.3-1.5s-6.8-0.1-10.8,0.6c-3.9,0.6-9.4,2.3-9.4,2.3s2.9,17.6,3,17.8s6.8,3.2,6.8,3.2l-3.6,4.8
	c0,0-2.9-1.5-5.1-2.2c-2.2-0.6-3.8-1-8.2-1.3c-4.4-0.2-8.9,0.6-8.9,0.6l0,3.4c0,0-2.1,0.5-4.2,1.5c-2.1,1.1-4.6,1.6-8.8,6.4
	c-3,3.3-6.9,7.7-8,15.9c-1,7.3-0.6,10.1,1.6,15.3c2.4,5.4,6.5,10.1,11.9,13.3c5.4,3.2,13.2,4.5,20.2,3.3s10.9-3.9,14.7-7.3
	c3.8-3.3,6.5-10.2,6.5-10c0,0,3.2,0.1,3.2,0.1s0.7-3.5,1.2-7.3c0.6-4.1,0.4-9.3-0.6-12.9s-6.7-12-6.8-11.8c-0.2,0.2,4.2-4.2,4.2-4.2
	s14.8,13,14.7,13.3c0,0.2,0,0-0.4,2.2s0.5,6,1.8,10.3c1.3,4.3,3.5,6.1,5.5,7.7s6.5,2.5,9.1,2.9s41.8,0,41.8,0s0.2,0.6,0.7,1.7
	s4.1,7.5,10.2,11.4s11,4.8,18,4.7s13.2-3.5,18.4-8.8c5.1-5.2,7.2-13,7.2-13l3.2,0c0,0,0.2-0.8,0.3-1.7
	C193.8,137.9,193.9,132.8,191.8,125.3z M49.9,145.4c-1.2,2.2-2.6,3.7-5.2,5.7c-2.6,2-6.3,3-9.7,3c-3.3,0.1-5.3-0.8-7.5-1.7
	c-2.2-1-4.2-2.7-5.5-4.3c-1.3-1.6-2.8-4.8-3.1-6.1c-0.6-2.2-0.5-3.8-0.6-5.2s0.4-3.9,1-5.9c0.7-2,1.6-3.1,2.8-4.7
	c1.2-1.6,3.6-3.2,5.8-4.4c2.2-1.2,5.2-1.5,7.7-1.6c2.5-0.1,5.3,1.1,5.3,1.1l-3.3,4.6c0,0-1.6-0.3-2.7-0.3c-1,0-1.8,0.1-3.9,0.7
	c-2.3,0.7-3,1.1-4.4,2.5s-2.4,3-2.9,4.7s-0.6,4.3-0.2,5.9s0.6,2.8,2,4.8c1.1,1.6,2.4,2.6,4.6,3.6c2.1,1,4.5,1.2,6.4,1
	c1.9-0.2,3.6-0.9,5.7-2.4c2.1-1.5,2.9-2.7,3.8-5c0.9-2.4,0.9-4.3,0.6-6.3c-0.6-3.6-2.2-4.9-2.2-4.9l3.9-3.8c0,0,1.6,2.1,2.4,3.9
	c0.8,1.8,1.3,4.6,1.3,7.3C52.1,140.3,51.1,143.2,49.9,145.4z M99.4,95.6l-13.5-8.2l10.5-7l8.8,11.2L99.4,95.6z M174.6,148.1
	c-3.4,3.9-9.7,6.8-15.7,5.4c-6-1.4-10.6-6.5-11.4-7.8c-0.7-1.2-1-1.7-1-1.7l4.4-2.8c0,0,2.1,3.5,4,4.9c1.8,1.3,4.2,2.4,7.4,2.3
	c3-0.1,4.8-0.6,6.8-2.1c2-1.5,3.1-3.1,3.7-4.6c0.8-2.1,1.1-5,0.8-6.6s-1-3.2-1.6-4.2c-0.6-1-1.7-2.4-1.7-2.4l4.4-2.7
	c0,0,3.9,5.4,4.1,9.7C179,139.8,178,144.1,174.6,148.1z"/>
<ellipse id="backlight" transform="matrix(0.7887 -0.6148 0.6148 0.7887 -27.5228 130.5605)" fill="#ED1C24" cx="176.1" cy="105.3" rx="4" ry="5.3"/>
<ellipse id="fronthlight" transform="matrix(0.966 -0.2584 0.2584 0.966 -22.0816 15.313)" fill="#FFFFFF" cx="47.2" cy="91.7" rx="4" ry="6.9"/>
</svg>
